<svg enable-background="new 0 0 140 140" height="512" viewBox="0 0 140 140" width="512" xmlns="http://www.w3.org/2000/svg"><circle cx="70" cy="70" fill="#de594e" r="64"/><path d="m104.7242661 33.9929466v-.0100098c-1.5299683-1.2399902-3.4799805-1.9899902-5.6099854-1.9899902h-58.2199707c-4.9200439 0-8.9000244 3.9799805-8.9000244 8.9000244v58.220089c0 2.6398926 1.1500244 5 2.9699707 6.6298828l27.8442993 27.8442459c2.3619995.2642822 4.7589111.4128418 7.1914673.4128418 35.3463135 0 63.9999924-28.6538162 63.9999924-64.0000076 0-2.4138184-.1456299-4.7928467-.4058838-7.1372032l-27.5898361-27.5898438c-.3800049-.4699707-.8099976-.9000244-1.2800293-1.2800293z" opacity=".1"/><path d="m99.1103516 31.9947453h-58.2207489c-4.912468 0-8.8948536 3.9823284-8.8948536 8.8948536v58.2207451c0 4.9124756 3.9823856 8.8948593 8.8948536 8.8948593h58.2207489c4.912529 0 8.8948517-3.9823837 8.8948517-8.8948593v-58.2207452c-.0000001-4.9125251-3.9823227-8.8948535-8.8948517-8.8948535z" fill="#ededed"/><path d="m39.091816 39.091793h61.816113v61.816113h-61.816113z" fill="#dbd8dd"/><path d="m49.177185 46.259571h3.253276v47.48056h-3.253276z" fill="#344d5b"/><ellipse cx="50.804" cy="77.634" fill="#4288b9" rx="4.544" ry="4.544" transform="matrix(.707 -.707 .707 .707 -40.016 58.662)"/><path d="m50.8037262 75.0895462c-1.4032669 0-2.5447197 1.1417084-2.5447197 2.5449753 0 1.4032745 1.1414528 2.5447235 2.5447197 2.5447235s2.5449791-1.141449 2.5449791-2.5447235c0-1.4032669-1.1417122-2.5449753-2.5449791-2.5449753z" fill="#64798a"/><path d="m50.8036957 74.4533386c-1.7540855 0-3.1809006 1.4271317-3.1809006 3.181221 0 1.7540817 1.426815 3.1808929 3.1809006 3.1808929s3.181221-1.4268112 3.181221-3.1808929c0-1.7540893-1.4271355-3.181221-3.181221-3.181221z" fill="#4da0dc"/><path d="m61.974564 46.259571h3.253276v47.48056h-3.253276z" fill="#344d5b"/><ellipse cx="63.601" cy="65.748" fill="#4abba4" rx="4.544" ry="4.544" transform="matrix(.707 -.707 .707 .707 -27.863 64.23)"/><path d="m63.6011047 63.2033005c-1.4032707 0-2.5447197 1.1417084-2.5447197 2.5449753s1.141449 2.5447159 2.5447197 2.5447159c1.4032669 0 2.5449753-1.141449 2.5449753-2.5447159s-1.1417084-2.5449753-2.5449753-2.5449753z" fill="#64798a"/><path d="m63.6010704 62.5670853c-1.7540855 0-3.1808968 1.4271393-3.1808968 3.181221 0 1.7540894 1.4268112 3.1809006 3.1808968 3.1809006s3.1812248-1.4268112 3.1812248-3.1809006c0-1.7540818-1.4271393-3.181221-3.1812248-3.181221z" fill="#41a38e"/><path d="m74.771942 46.259571h3.253276v47.48056h-3.253276z" fill="#344d5b"/><ellipse cx="76.399" cy="83.854" fill="#fed35b" rx="4.544" ry="4.544" transform="matrix(.707 -.707 .707 .707 -36.917 78.582)"/><path d="m76.3984833 81.3094559c-1.4032745 0-2.5447235 1.1417084-2.5447235 2.5449753s1.141449 2.5447235 2.5447235 2.5447235c1.4032669 0 2.5449753-1.1414566 2.5449753-2.5447235s-1.1417084-2.5449753-2.5449753-2.5449753z" fill="#64798a"/><path d="m76.3984451 80.6732483c-1.7540817 0-3.1808929 1.4271317-3.1808929 3.181221 0 1.7540817 1.4268112 3.1808929 3.1808929 3.1808929 1.7540894 0 3.181221-1.4268112 3.181221-3.1808929 0-1.7540894-1.4271316-3.181221-3.181221-3.181221z" fill="#d6b24e"/><path d="m87.569313 46.259571h3.253276v47.48056h-3.253276z" fill="#344d5b"/><ellipse cx="89.196" cy="65.203" fill="#dd584d" rx="4.544" ry="4.544" transform="matrix(.707 -.707 .707 .707 -19.98 82.169)"/><path d="m89.1958542 62.6579132c-1.4032669 0-2.5447159 1.1417084-2.5447159 2.5449753s1.141449 2.5447235 2.5447159 2.5447235 2.5449829-1.1414566 2.5449829-2.5447235-1.141716-2.5449753-2.5449829-2.5449753z" fill="#64798a"/><path d="m89.1958237 62.0217018c-1.7540817 0-3.1809006 1.4271355-3.1809006 3.1812248 0 1.7540817 1.4268188 3.1808929 3.1809006 3.1808929 1.7540894 0 3.181221-1.4268112 3.181221-3.1808929 0-1.7540893-1.4271317-3.1812248-3.181221-3.1812248z" fill="#cd5248"/></svg>