<svg height="512pt" viewBox="0 0 512 512" width="512pt" xmlns="http://www.w3.org/2000/svg"><path d="m256 107.234375-10.667969 63.429687 10.667969 61.792969h81.054688l3.285156-10.527343c2.65625-8.507813 4.003906-17.375 4.003906-26.351563 0-48.714844-39.628906-88.34375-88.34375-88.34375zm0 0" fill="#282828"/><path d="m167.65625 195.578125c0 8.976563 1.347656 17.839844 4.003906 26.347656l3.285156 10.53125h81.054688v-125.222656c-48.714844 0-88.34375 39.628906-88.34375 88.34375zm0 0" fill="#4f4f4f"/><path d="m256 0-10.667969 74.664062 10.667969 72.8125c40.660156 0 73.738281-33.078124 73.738281-73.738281 0-40.660156-33.078125-73.738281-73.738281-73.738281zm0 0" fill="#f1aa92"/><path d="m182.261719 73.738281c0 40.660157 33.078125 73.738281 73.738281 73.738281v-147.476562c-40.660156 0-73.738281 33.078125-73.738281 73.738281zm0 0" fill="#f5c3b2"/><path d="m321.332031 358.058594 62 153.941406h128.667969v-153.941406zm0 0" fill="#006df4"/><path d="m0 272.726562v239.273438h128.667969l61.996093-239.273438zm0 0" fill="#ff4b00"/><path d="m383.332031 202.457031h-127.332031l-10.667969 170.875 10.667969 138.667969h127.332031zm0 0" fill="#fdae02"/><path d="m128.667969 202.457031h127.332031v309.542969h-127.332031zm0 0" fill="#fdcb02"/><path d="m256 280.9375-4.769531 74.363281 4.769531 72.429688c40.472656 0 73.394531-32.925781 73.394531-73.398438 0-40.46875-32.921875-73.394531-73.394531-73.394531zm0 0" fill="#ff7300"/><path d="m182.605469 354.332031c0 40.472657 32.921875 73.398438 73.394531 73.398438v-146.792969c-40.472656 0-73.394531 32.925781-73.394531 73.394531zm0 0" fill="#ff9d00"/><path d="m272.886719 309.332031h-16.886719l-3 29.066407 3 60.933593h16.886719zm0 0" fill="#ffe899"/><path d="m227.113281 309.332031v22.886719h15.429688v67.113281h13.457031v-90zm0 0" fill="#fff6d6"/></svg>